<?xml version="1.0" encoding="UTF-8"?>
<svg id="_Слой_1" data-name="Слой_1" xmlns="http://www.w3.org/2000/svg" version="1.1" viewBox="0 0 265.97 67.39">
  <!-- Generator: Adobe Illustrator 29.3.1, SVG Export Plug-In . SVG Version: 2.1.0 Build 151)  -->
  <defs>
    <style>
      .st0 {
        fill: #3a3a3a;
      }

      .st1 {
        fill: #fff;
      }

      .st2 {
        fill: #e20000;
      }

      .st3 {
        fill: red;
      }
    </style>
  </defs>
  <g>
    <g>
      <g>
        <path d="M82.11,2.87c0-1.66,1.16-2.38,2.65-2.38s2.65.72,2.65,2.32v34.16c0,1.27.72,1.93,1.99,1.93h19.57c1.44,0,2.27,1.05,2.27,2.43s-.83,2.54-2.27,2.54h-21.22c-3.92,0-5.64-1.71-5.64-5.91V2.87Z"/>
        <path d="M121.95,37.3c0,1.27.83,1.77,2.05,1.77h19.79c1.44,0,2.21,1,2.21,2.38s-.77,2.43-2.21,2.43h-21.39c-3.92,0-5.64-1.71-5.64-5.91V6.79c0-4.25,1.71-5.97,5.64-5.97h20.89c1.44,0,2.21,1,2.21,2.38s-.77,2.43-2.21,2.43h-19.45c-1.33,0-1.88.61-1.88,1.93v11.44h18.85c1.38,0,2.16,1,2.16,2.38,0,1.27-.83,2.32-2.16,2.32h-18.85v13.6Z"/>
        <path d="M181.58,28.13c0-.94-.28-1.55-1.44-1.55h-7.24c-1.49,0-2.21-.94-2.21-2.32s.72-2.43,2.21-2.43h8.9c3.26,0,4.53,1.44,4.53,4.81v15.59c0,1.6-.88,2.38-2.32,2.38s-2.38-.77-2.38-2.05v-1.44c0-.55.06-1.55.17-2.27-.39.66-1.05,1.66-1.6,2.1-2.21,2.04-5.86,3.76-10.11,3.76-12.16,0-19.4-9.01-19.4-22.38S157.87,0,169.92,0c9.23,0,13.6,5.09,15.53,9.23.22.44.28.77.28,1.16,0,1.11-.83,1.88-1.71,2.21-.44.17-.94.28-1.38.28-.94,0-1.77-.39-2.27-1.49-1.49-3.32-4.26-6.58-10.39-6.58-8.46,0-13.76,6.85-13.76,17.58s5.69,17.52,13.98,17.52c6.13,0,11.39-4.09,11.39-10.56v-1.22Z"/>
        <path d="M197.11,42.66c-.39,1.11-1.22,1.55-2.16,1.55-.39,0-.72-.06-1.11-.17-1.11-.28-1.93-1.22-1.93-2.27,0-.33.06-.61.17-.94l15.03-37.75c.72-1.88,2.1-2.6,3.81-2.6s3.21.72,3.92,2.6l15.03,37.86c.17.33.22.61.22.94,0,1.11-.88,1.93-1.99,2.21-.33.11-.66.17-.99.17-1,0-1.88-.5-2.27-1.55l-4.37-11.44h-19.12l-4.26,11.39ZM218.83,26.63l-6.13-16.08c-.61-1.6-1.22-3.37-1.71-5.25-.5,1.88-1.05,3.65-1.71,5.31l-6.25,16.03h15.81Z"/>
        <path d="M236.95,2.87c0-1.66,1.16-2.38,2.65-2.38s2.65.72,2.65,2.32v34.16c0,1.27.72,1.93,1.99,1.93h19.56c1.44,0,2.27,1.05,2.27,2.43s-.83,2.54-2.27,2.54h-21.22c-3.92,0-5.64-1.71-5.64-5.91V2.87Z"/>
      </g>
      <g>
        <path class="st1" d="M82.11,2.87c0-1.66,1.16-2.38,2.65-2.38s2.65.72,2.65,2.32v34.16c0,1.27.72,1.93,1.99,1.93h19.57c1.44,0,2.27,1.05,2.27,2.43s-.83,2.54-2.27,2.54h-21.22c-3.92,0-5.64-1.71-5.64-5.91V2.87Z"/>
        <path class="st1" d="M121.95,37.3c0,1.27.83,1.77,2.05,1.77h19.79c1.44,0,2.21,1,2.21,2.38s-.77,2.43-2.21,2.43h-21.39c-3.92,0-5.64-1.71-5.64-5.91V6.79c0-4.25,1.71-5.97,5.64-5.97h20.89c1.44,0,2.21,1,2.21,2.38s-.77,2.43-2.21,2.43h-19.45c-1.33,0-1.88.61-1.88,1.93v11.44h18.85c1.38,0,2.16,1,2.16,2.38,0,1.27-.83,2.32-2.16,2.32h-18.85v13.6Z"/>
        <path class="st1" d="M181.58,28.13c0-.94-.28-1.55-1.44-1.55h-7.24c-1.49,0-2.21-.94-2.21-2.32s.72-2.43,2.21-2.43h8.9c3.26,0,4.53,1.44,4.53,4.81v15.59c0,1.6-.88,2.38-2.32,2.38s-2.38-.77-2.38-2.05v-1.44c0-.55.06-1.55.17-2.27-.39.66-1.05,1.66-1.6,2.1-2.21,2.04-5.86,3.76-10.11,3.76-12.16,0-19.4-9.01-19.4-22.38S157.87,0,169.92,0c9.23,0,13.6,5.09,15.53,9.23.22.44.28.77.28,1.16,0,1.11-.83,1.88-1.71,2.21-.44.17-.94.28-1.38.28-.94,0-1.77-.39-2.27-1.49-1.49-3.32-4.26-6.58-10.39-6.58-8.46,0-13.76,6.85-13.76,17.58s5.69,17.52,13.98,17.52c6.13,0,11.39-4.09,11.39-10.56v-1.22Z"/>
        <path class="st1" d="M197.11,42.66c-.39,1.11-1.22,1.55-2.16,1.55-.39,0-.72-.06-1.11-.17-1.11-.28-1.93-1.22-1.93-2.27,0-.33.06-.61.17-.94l15.03-37.75c.72-1.88,2.1-2.6,3.81-2.6s3.21.72,3.92,2.6l15.03,37.86c.17.33.22.61.22.94,0,1.11-.88,1.93-1.99,2.21-.33.11-.66.17-.99.17-1,0-1.88-.5-2.27-1.55l-4.37-11.44h-19.12l-4.26,11.39ZM218.83,26.63l-6.13-16.08c-.61-1.6-1.22-3.37-1.71-5.25-.5,1.88-1.05,3.65-1.71,5.31l-6.25,16.03h15.81Z"/>
        <path class="st1" d="M236.95,2.87c0-1.66,1.16-2.38,2.65-2.38s2.65.72,2.65,2.32v34.16c0,1.27.72,1.93,1.99,1.93h19.56c1.44,0,2.27,1.05,2.27,2.43s-.83,2.54-2.27,2.54h-21.22c-3.92,0-5.64-1.71-5.64-5.91V2.87Z"/>
      </g>
    </g>
    <g>
      <g>
        <path d="M84,66.23c-.14.4-.44.56-.79.56-.14,0-.26-.02-.4-.06-.4-.1-.7-.44-.7-.83,0-.12.02-.22.06-.34l5.48-13.75c.26-.68.77-.95,1.39-.95s1.17.26,1.43.95l5.48,13.79c.06.12.08.22.08.34,0,.4-.32.7-.72.81-.12.04-.24.06-.36.06-.36,0-.68-.18-.83-.56l-1.59-4.17h-6.97l-1.55,4.15ZM91.91,60.39l-2.24-5.86c-.22-.58-.44-1.23-.62-1.91-.18.68-.38,1.33-.62,1.93l-2.28,5.84h5.76Z"/>
        <path d="M108.71,51.7c0-.56.4-.83.97-.83s.95.26.95.83v13.83c0,.79-.4,1.27-1.21,1.27-.87,0-1.19-.34-1.69-1.15l-5.34-8.64c-.81-1.29-1.81-3.26-2.28-4.27.12,1.29.28,4.09.28,7.05v6.18c0,.54-.4.83-.95.83s-.97-.28-.97-.83v-13.89c0-.74.48-1.21,1.27-1.21.91,0,1.25.36,1.63.97l5.07,8.24c.93,1.51,2.05,3.66,2.58,4.79-.12-1.25-.32-4.17-.32-7.07v-6.1Z"/>
        <path d="M114.99,66.23c-.14.4-.44.56-.79.56-.14,0-.26-.02-.4-.06-.4-.1-.7-.44-.7-.83,0-.12.02-.22.06-.34l5.48-13.75c.26-.68.77-.95,1.39-.95s1.17.26,1.43.95l5.48,13.79c.06.12.08.22.08.34,0,.4-.32.7-.73.81-.12.04-.24.06-.36.06-.36,0-.68-.18-.83-.56l-1.59-4.17h-6.97l-1.55,4.15ZM122.9,60.39l-2.23-5.86c-.22-.58-.44-1.23-.62-1.91-.18.68-.38,1.33-.62,1.93l-2.28,5.84h5.76Z"/>
        <path d="M135.4,57.8c3.14.66,4.85,1.73,4.85,4.65,0,2.6-1.99,4.55-5.6,4.55-4.59,0-5.54-2.38-6.02-4.01-.02-.1-.04-.18-.04-.26,0-.44.34-.74.77-.85.12-.02.22-.04.34-.04.38,0,.77.18.89.6.36,1.35,1.03,2.86,3.97,2.86,2.3,0,3.73-1.11,3.73-2.84s-.91-2.38-3.28-2.86l-1.61-.34c-3.02-.62-4.39-1.77-4.39-4.41,0-2.11,1.57-4.17,5.36-4.17s4.87,1.93,5.32,3.38c.04.1.06.2.06.3,0,.42-.34.73-.75.81-.1.02-.22.04-.34.04-.36,0-.73-.16-.89-.58-.32-1.15-1.17-2.28-3.4-2.28s-3.4,1.17-3.4,2.5c0,1.45.7,2.19,2.96,2.64l1.49.3Z"/>
        <path d="M142.51,52.76c-.5,0-.79-.4-.79-.87s.28-.91.77-.91h11.09c.48,0,.77.42.77.91s-.3.87-.77.87h-4.57v13.21c0,.54-.42.83-.97.83s-.97-.28-.97-.83v-13.21h-4.57Z"/>
        <path d="M154.99,66.23c-.14.4-.44.56-.79.56-.14,0-.26-.02-.4-.06-.4-.1-.7-.44-.7-.83,0-.12.02-.22.06-.34l5.48-13.75c.26-.68.77-.95,1.39-.95s1.17.26,1.43.95l5.48,13.79c.06.12.08.22.08.34,0,.4-.32.7-.73.81-.12.04-.24.06-.36.06-.36,0-.68-.18-.83-.56l-1.59-4.17h-6.97l-1.55,4.15ZM162.9,60.39l-2.23-5.86c-.22-.58-.44-1.23-.62-1.91-.18.68-.38,1.33-.62,1.93l-2.28,5.84h5.76Z"/>
        <path d="M170.01,52.74c-.5,0-.79-.38-.79-.87s.28-.89.79-.89h9.26c.68,0,1.05.44,1.05,1.09s-.24.99-.68,1.55l-8.11,10.49c-.22.28-.52.52-.89.89.42-.04.95-.08,1.29-.08h7.93c.5,0,.77.36.77.85s-.28.91-.81.91h-10.23c-.64,0-1.07-.46-1.07-1.11s.26-1.01.66-1.51l8.18-10.51c.22-.28.52-.54.89-.91-.44.06-.97.1-1.27.1h-6.97Z"/>
        <path d="M183.16,51.7c0-.56.4-.83.95-.83s.99.26.99.83v14.28c0,.54-.42.83-.99.83s-.95-.28-.95-.83v-14.28Z"/>
        <path d="M189.44,66.23c-.14.4-.44.56-.79.56-.14,0-.26-.02-.4-.06-.4-.1-.7-.44-.7-.83,0-.12.02-.22.06-.34l5.48-13.75c.26-.68.77-.95,1.39-.95s1.17.26,1.43.95l5.48,13.79c.06.12.08.22.08.34,0,.4-.32.7-.73.81-.12.04-.24.06-.36.06-.36,0-.68-.18-.83-.56l-1.59-4.17h-6.97l-1.55,4.15ZM197.35,60.39l-2.23-5.86c-.22-.58-.44-1.23-.62-1.91-.18.68-.38,1.33-.62,1.93l-2.28,5.84h5.76Z"/>
        <path d="M224.13,66.23c-.14.4-.44.56-.79.56-.14,0-.26-.02-.4-.06-.4-.1-.7-.44-.7-.83,0-.12.02-.22.06-.34l5.48-13.75c.26-.68.77-.95,1.39-.95s1.17.26,1.43.95l5.48,13.79c.06.12.08.22.08.34,0,.4-.32.7-.73.81-.12.04-.24.06-.36.06-.36,0-.68-.18-.83-.56l-1.59-4.17h-6.97l-1.55,4.15ZM232.04,60.39l-2.23-5.86c-.22-.58-.44-1.23-.62-1.91-.18.68-.38,1.33-.62,1.93l-2.28,5.84h5.76Z"/>
        <path d="M240.5,65.95c0,.56-.4.85-.95.85s-.95-.28-.95-.87v-12.77c0-1.55.62-2.17,2.05-2.17h4.47c3.18,0,4.97,1.63,4.97,4.49,0,3.02-1.85,4.77-5.05,4.77h-4.55v5.7ZM245.01,58.56c2.03,0,3.12-1.09,3.12-3.04,0-1.81-1.11-2.82-3.12-2.82h-3.87c-.44,0-.64.26-.64.7v5.15h4.51Z"/>
        <path d="M266.05,58.84c0,4.95-2.7,8.16-7.01,8.16s-7.05-3.18-7.05-8.18,2.72-8.14,7.05-8.14,7.01,3.18,7.01,8.16ZM253.99,58.84c0,3.89,1.97,6.4,5.05,6.4s5.01-2.48,5.01-6.52c0-3.81-1.95-6.3-5.01-6.3s-5.05,2.54-5.05,6.42Z"/>
      </g>
      <g>
        <path class="st0" d="M84,66.23c-.14.4-.44.56-.79.56-.14,0-.26-.02-.4-.06-.4-.1-.7-.44-.7-.83,0-.12.02-.22.06-.34l5.48-13.75c.26-.68.77-.95,1.39-.95s1.17.26,1.43.95l5.48,13.79c.06.12.08.22.08.34,0,.4-.32.7-.72.81-.12.04-.24.06-.36.06-.36,0-.68-.18-.83-.56l-1.59-4.17h-6.97l-1.55,4.15ZM91.91,60.39l-2.24-5.86c-.22-.58-.44-1.23-.62-1.91-.18.68-.38,1.33-.62,1.93l-2.28,5.84h5.76Z"/>
        <path class="st0" d="M108.71,51.7c0-.56.4-.83.97-.83s.95.26.95.83v13.83c0,.79-.4,1.27-1.21,1.27-.87,0-1.19-.34-1.69-1.15l-5.34-8.64c-.81-1.29-1.81-3.26-2.28-4.27.12,1.29.28,4.09.28,7.05v6.18c0,.54-.4.83-.95.83s-.97-.28-.97-.83v-13.89c0-.74.48-1.21,1.27-1.21.91,0,1.25.36,1.63.97l5.07,8.24c.93,1.51,2.05,3.66,2.58,4.79-.12-1.25-.32-4.17-.32-7.07v-6.1Z"/>
        <path class="st0" d="M114.99,66.23c-.14.4-.44.56-.79.56-.14,0-.26-.02-.4-.06-.4-.1-.7-.44-.7-.83,0-.12.02-.22.06-.34l5.48-13.75c.26-.68.77-.95,1.39-.95s1.17.26,1.43.95l5.48,13.79c.06.12.08.22.08.34,0,.4-.32.7-.73.81-.12.04-.24.06-.36.06-.36,0-.68-.18-.83-.56l-1.59-4.17h-6.97l-1.55,4.15ZM122.9,60.39l-2.23-5.86c-.22-.58-.44-1.23-.62-1.91-.18.68-.38,1.33-.62,1.93l-2.28,5.84h5.76Z"/>
        <path class="st0" d="M135.4,57.8c3.14.66,4.85,1.73,4.85,4.65,0,2.6-1.99,4.55-5.6,4.55-4.59,0-5.54-2.38-6.02-4.01-.02-.1-.04-.18-.04-.26,0-.44.34-.74.77-.85.12-.02.22-.04.34-.04.38,0,.77.18.89.6.36,1.35,1.03,2.86,3.97,2.86,2.3,0,3.73-1.11,3.73-2.84s-.91-2.38-3.28-2.86l-1.61-.34c-3.02-.62-4.39-1.77-4.39-4.41,0-2.11,1.57-4.17,5.36-4.17s4.87,1.93,5.32,3.38c.04.1.06.2.06.3,0,.42-.34.73-.75.81-.1.02-.22.04-.34.04-.36,0-.73-.16-.89-.58-.32-1.15-1.17-2.28-3.4-2.28s-3.4,1.17-3.4,2.5c0,1.45.7,2.19,2.96,2.64l1.49.3Z"/>
        <path class="st0" d="M142.51,52.76c-.5,0-.79-.4-.79-.87s.28-.91.77-.91h11.09c.48,0,.77.42.77.91s-.3.87-.77.87h-4.57v13.21c0,.54-.42.83-.97.83s-.97-.28-.97-.83v-13.21h-4.57Z"/>
        <path class="st0" d="M154.99,66.23c-.14.4-.44.56-.79.56-.14,0-.26-.02-.4-.06-.4-.1-.7-.44-.7-.83,0-.12.02-.22.06-.34l5.48-13.75c.26-.68.77-.95,1.39-.95s1.17.26,1.43.95l5.48,13.79c.06.12.08.22.08.34,0,.4-.32.7-.73.81-.12.04-.24.06-.36.06-.36,0-.68-.18-.83-.56l-1.59-4.17h-6.97l-1.55,4.15ZM162.9,60.39l-2.23-5.86c-.22-.58-.44-1.23-.62-1.91-.18.68-.38,1.33-.62,1.93l-2.28,5.84h5.76Z"/>
        <path class="st0" d="M170.01,52.74c-.5,0-.79-.38-.79-.87s.28-.89.79-.89h9.26c.68,0,1.05.44,1.05,1.09s-.24.99-.68,1.55l-8.11,10.49c-.22.28-.52.52-.89.89.42-.04.95-.08,1.29-.08h7.93c.5,0,.77.36.77.85s-.28.91-.81.91h-10.23c-.64,0-1.07-.46-1.07-1.11s.26-1.01.66-1.51l8.18-10.51c.22-.28.52-.54.89-.91-.44.06-.97.1-1.27.1h-6.97Z"/>
        <path class="st0" d="M183.16,51.7c0-.56.4-.83.95-.83s.99.26.99.83v14.28c0,.54-.42.83-.99.83s-.95-.28-.95-.83v-14.28Z"/>
        <path class="st0" d="M189.44,66.23c-.14.4-.44.56-.79.56-.14,0-.26-.02-.4-.06-.4-.1-.7-.44-.7-.83,0-.12.02-.22.06-.34l5.48-13.75c.26-.68.77-.95,1.39-.95s1.17.26,1.43.95l5.48,13.79c.06.12.08.22.08.34,0,.4-.32.7-.73.81-.12.04-.24.06-.36.06-.36,0-.68-.18-.83-.56l-1.59-4.17h-6.97l-1.55,4.15ZM197.35,60.39l-2.23-5.86c-.22-.58-.44-1.23-.62-1.91-.18.68-.38,1.33-.62,1.93l-2.28,5.84h5.76Z"/>
        <path class="st0" d="M224.13,66.23c-.14.4-.44.56-.79.56-.14,0-.26-.02-.4-.06-.4-.1-.7-.44-.7-.83,0-.12.02-.22.06-.34l5.48-13.75c.26-.68.77-.95,1.39-.95s1.17.26,1.43.95l5.48,13.79c.06.12.08.22.08.34,0,.4-.32.7-.73.81-.12.04-.24.06-.36.06-.36,0-.68-.18-.83-.56l-1.59-4.17h-6.97l-1.55,4.15ZM232.04,60.39l-2.23-5.86c-.22-.58-.44-1.23-.62-1.91-.18.68-.38,1.33-.62,1.93l-2.28,5.84h5.76Z"/>
        <path class="st0" d="M240.5,65.95c0,.56-.4.85-.95.85s-.95-.28-.95-.87v-12.77c0-1.55.62-2.17,2.05-2.17h4.47c3.18,0,4.97,1.63,4.97,4.49,0,3.02-1.85,4.77-5.05,4.77h-4.55v5.7ZM245.01,58.56c2.03,0,3.12-1.09,3.12-3.04,0-1.81-1.11-2.82-3.12-2.82h-3.87c-.44,0-.64.26-.64.7v5.15h4.51Z"/>
        <path class="st0" d="M266.05,58.84c0,4.95-2.7,8.16-7.01,8.16s-7.05-3.18-7.05-8.18,2.72-8.14,7.05-8.14,7.01,3.18,7.01,8.16ZM253.99,58.84c0,3.89,1.97,6.4,5.05,6.4s5.01-2.48,5.01-6.52c0-3.81-1.95-6.3-5.01-6.3s-5.05,2.54-5.05,6.42Z"/>
      </g>
    </g>
    <path class="st0" d="M220.45,64.86h-7.13c-.46,0-.73-.24-.73-.7v-4.83l2.8-1.22c.51-.22.74-.81.52-1.32-.22-.51-.81-.74-1.32-.52l-2.01.87v-5.43c0-.58-.4-.85-.97-.85s-.97.26-.97.87v6.25l-2.56,1.11c-.51.22-.74.81-.52,1.32.16.38.53.6.92.6.13,0,.27-.03.4-.08l1.76-.76v4.35c0,1.53.62,2.15,2.05,2.15h7.73c.52,0,.83-.44.83-.93s-.3-.89-.83-.89Z"/>
  </g>
  <g>
    <g>
      <path class="st1" d="M10.4,42.37c.15.02.09-.12.09-.23.02-.52.01-1.13.1-1.64.15-.88,1.89-.92,1.9.53s-.73,4.04-.25,5.28c.08.22.4.56.42.67.02.14-.14.36-.15.54-.1,1.14.44,1.79,1.23,2.5,1.41,1.27,3.23,2.28,4.66,3.55.57.36,1.35-.3.85-.85-1.36-1.36-3.33-2.4-4.7-3.7-.52-.5-.72-.74-.48-1.48.43-1.32,1.75-.93,2.68-.45,1.46.75,2.86,1.84,4.32,2.62,2.2,1.18,4.71,1.7,6.62,3.33,2.11,1.8,3.43,4.47,3.61,7.25.1,1.59.15,4.39,0,5.94-.11,1.14-1.97.45-2.76.29-.67-.14-4.01-.9-4.32-1.24-.4-.43.11-1.54.21-2.08.9-5.03-2.93-4.99-6.5-6.31s-4.51-3.04-6.47-5.94c-2.27-3.37-3.86-6.92-5.4-10.67-.25-1.22.75-2.06,1.94-1.67,1.06.35,1.91,2.82,2.4,3.76Z"/>
      <path class="st1" d="M58.67,42.37c-.15.02-.09-.12-.09-.23-.02-.52-.01-1.13-.1-1.64-.15-.88-1.89-.92-1.9.53s.73,4.04.25,5.28c-.08.22-.4.56-.42.67-.02.14.14.36.15.54.1,1.14-.44,1.79-1.23,2.5-1.41,1.27-3.23,2.28-4.66,3.55-.57.36-1.35-.3-.85-.85,1.36-1.36,3.33-2.4,4.7-3.7.52-.5.72-.74.48-1.48-.43-1.32-1.75-.93-2.68-.45-1.46.75-2.86,1.84-4.32,2.62-2.2,1.18-4.71,1.7-6.62,3.33-2.11,1.8-3.43,4.47-3.61,7.25-.1,1.59-.15,4.39,0,5.94.11,1.14,1.97.45,2.76.29.67-.14,4.01-.9,4.32-1.24.4-.43-.11-1.54-.21-2.08-.9-5.03,2.93-4.99,6.5-6.31s4.51-3.04,6.47-5.94c2.27-3.37,3.86-6.92,5.4-10.67.25-1.22-.75-2.06-1.94-1.67-1.06.35-1.91,2.82-2.4,3.76Z"/>
    </g>
    <g>
      <path class="st1" d="M13.58,41.58c.03-.11.35-.3.5-.31.65-.02.89.53,1.03,1.06.09.34.57,2.82.48,2.94-.7-.29-1.38.07-2.01.37v-4.06Z"/>
      <path class="st1" d="M55.49,41.56c-.03-.11-.35-.3-.5-.31-.65-.02-.89.53-1.03,1.06-.09.34-.57,2.82-.48,2.94.7-.29,1.38.07,2.01.37v-4.06Z"/>
    </g>
    <path class="st3" d="M34.53,67.38c-.55,0-1-.45-1-1v-8.19c0-.55.45-1,1-1s1,.45,1,1v8.19c0,.55-.45,1-1,1Z"/>
    <g>
      <path class="st1" d="M27.98,13.33c0-3.62,2.93-6.56,6.56-6.56s6.56,2.93,6.56,6.56h-13.11Z"/>
      <path class="st2" d="M41.09,13.33c0,3.62-2.93,6.56-6.56,6.56s-6.56-2.93-6.56-6.56h13.11Z"/>
    </g>
    <g>
      <path class="st3" d="M21.25,64.22c-.13,0-.27-.03-.4-.08C9.7,59.22,2.01,48.66.77,36.57c-.06-.55.34-1.04.89-1.1.56-.04,1.04.34,1.1.89,1.17,11.37,8.41,21.31,18.89,25.94.51.22.73.81.51,1.32-.17.37-.53.6-.92.6Z"/>
      <path class="st3" d="M47.47,64.37c-.39,0-.76-.23-.92-.61-.22-.51.02-1.1.53-1.31,10.69-4.57,18.06-14.58,19.23-26.11.06-.55.55-.95,1.1-.89.55.06.95.55.89,1.1-1.25,12.26-9.07,22.9-20.43,27.75-.13.05-.26.08-.39.08Z"/>
    </g>
    <path class="st3" d="M44.64,41.64c2.01.73,3.52.75,4.62.57,1.66-.28,2.47-1.01,2.91-1.43.34-.32.54-.67.66-1.04-1.7.68-3.67.9-5.89.43h-.08c-.28-.01-.3-.38-.02-.41,2.42-.78,4.04-2.43,4.72-3.7.68-1.27,1.26-4.1,1.26-4.1-8.76,5.15-16,8.3-16.05,8.32-.97.38-1.68.97-1.85,1.96,0,0-.19.16-.4.19-.21-.03-.4-.19-.4-.19-.17-.99-.88-1.58-1.85-1.96-.05-.02-7.3-3.17-16.05-8.32,0,0,.58,2.83,1.26,4.1.68,1.27,2.31,2.92,4.72,3.7.28.03.26.4-.02.41h-.08c-2.22.47-4.19.25-5.89-.43.12.37.32.72.66,1.04.44.42,1.25,1.15,2.91,1.43,1.1.18,2.61.16,4.62-.57.27-.1.48.23.24.38-.02.02-.04.03-.07.05-2.24,2.11-3.89,2.03-6.52,1.99.2.19.42.38.71.52.94.45,3.84,2.13,8.08-1.51.21-.19.53.08.36.29-.02.02-.04.05-.06.06-1.34,2.51-3.4,3.1-5.76,3.84.12.04.22.09.36.11,1.02.21,4.99,1.15,7.96-3.37.15-.23.54-.05.44.2,0,.02-.03.05-.03.07-.53,2.59-2.2,4.19-4.35,5.23.53.18,1.12.37,1.74.68.13.06.26.12.4.2,1.11.62,2.14,1.42,2.96,2.31l.83.99c-.05-.06-.1-.12-.14-.19.81.96,1.79,2.07,2.97,2.26h0s0,0,0,0c0,0,0,0,0,0h0s0,0,0,0c0,0,0,0,0,0h0s0,0,0,0c0,0,0,0,0,0h0c1.18-.19,2.16-1.3,2.97-2.26-.04.07-.09.13-.14.19l.83-.99c.82-.89,1.85-1.69,2.96-2.31.14-.08.27-.14.4-.2.62-.31,1.21-.5,1.74-.68-2.15-1.04-3.82-2.64-4.35-5.23,0-.02-.02-.05-.03-.07-.1-.25.29-.43.44-.2,2.97,4.52,6.94,3.58,7.96,3.37.14-.02.24-.07.36-.11-2.36-.74-4.42-1.33-5.76-3.84-.02-.01-.04-.04-.06-.06-.17-.21.15-.48.36-.29,4.24,3.64,7.14,1.96,8.08,1.51.29-.14.51-.33.71-.52-2.63.04-4.28.12-6.52-1.99-.03-.02-.05-.03-.07-.05-.24-.15-.03-.48.24-.38Z"/>
    <g>
      <path class="st3" d="M12.11,37.48c-.09,0-.18-.01-.27-.04l-6.09-1.68c-.53-.15-.84-.7-.7-1.23.15-.53.7-.84,1.23-.7l6.09,1.68c.53.15.84.7.7,1.23-.12.44-.52.73-.96.73Z"/>
      <path class="st3" d="M56.96,37.48c-.44,0-.84-.29-.96-.73-.15-.53.17-1.08.7-1.23l6.09-1.68c.53-.15,1.08.16,1.23.7.15.53-.17,1.08-.7,1.23l-6.09,1.68c-.09.02-.18.04-.27.04Z"/>
    </g>
    <g>
      <path class="st3" d="M13.96,33.8c.39,0,.76-.23.92-.61.21-.51-.03-1.1-.53-1.31-1.18-.5-7.18-2.95-9.23-2.75-2.27.23-3.8,1.44-4.62,2.09-.43.34-.52.98-.18,1.42.34.43.96.52,1.39.17.74-.58,1.92-1.52,3.61-1.69,1.15-.12,5.52,1.46,8.26,2.61.13.05.26.08.39.08Z"/>
      <path class="st3" d="M55.11,33.8c-.39,0-.76-.23-.92-.61-.21-.51.03-1.1.53-1.31,1.18-.5,7.18-2.95,9.23-2.75,2.27.23,3.8,1.44,4.62,2.09.43.34.52.98.18,1.42-.34.43-.96.52-1.39.17-.74-.58-1.92-1.52-3.61-1.69-1.15-.12-5.52,1.46-8.26,2.61-.13.05-.26.08-.39.08Z"/>
    </g>
    <path class="st1" d="M66.93,25.6s-.01-.07-.02-.11c-.34-1.46-.79-2.89-1.33-4.26-.11-.3-.38-.5-.7-.54-.36-.04-.96.02-1.38.12-.59.14-2.48.77-14.16,6.3-.14.07-.28.1-.43.1-.37,0-.73-.21-.9-.57-.24-.5-.03-1.1.47-1.33,10.25-4.86,13.27-6.07,14.33-6.41.24-.07.79-.3,1.18-.38.14-.04.21-.19.15-.32C58.72,7.39,47.71.14,34.77.14h-.47C21.36.14,10.35,7.39,4.93,18.2c-.07.13,0,.28.14.32.4.08.95.31,1.19.38,1.05.34,4.07,1.55,14.33,6.41.5.23.71.83.47,1.33-.17.36-.53.57-.9.57-.15,0-.29-.03-.43-.1-11.68-5.53-13.58-6.16-14.16-6.3-.42-.1-1.02-.16-1.39-.12-.31.04-.58.24-.7.54-.53,1.37-.98,2.8-1.32,4.26,0,.04-.02.08-.02.11-.05.21-.02.44.08.64.25.49.85.69,1.35.44,1.11-.56,2.39-.73,3.8-.48,1.74.31,17.29,8.33,26.67,13.31l.48.25h.01s.02,0,.02,0l.48-.25c9.38-4.98,24.93-13,26.67-13.31,1.41-.25,2.69-.08,3.8.48.5.25,1.1.05,1.35-.44.1-.2.13-.43.08-.64ZM57.73,14.61c.46-.31,1.08-.19,1.39.27s.19,1.08-.26,1.39l-4.65,3.16c-.17.11-.37.17-.56.17-.32,0-.64-.15-.83-.44-.31-.45-.19-1.08.27-1.39l4.64-3.16ZM48.82,13.68l3.67-4.26c.37-.42,1-.46,1.42-.1.41.36.46.99.1,1.41l-3.67,4.25c-.2.23-.48.35-.76.35-.23,0-.46-.08-.65-.24-.42-.36-.47-1-.11-1.41ZM15.16,9.32c.42-.36,1.05-.32,1.42.1l3.67,4.26c.36.41.31,1.05-.11,1.41-.19.16-.42.24-.65.24-.28,0-.56-.12-.76-.35l-3.67-4.25c-.36-.42-.31-1.05.1-1.41ZM16.25,19.16c-.19.29-.51.44-.83.44-.19,0-.39-.06-.56-.17l-4.65-3.16c-.45-.31-.57-.93-.26-1.39s.93-.58,1.39-.27l4.64,3.16c.46.31.58.94.27,1.39ZM23.02,21.22c-.19.22-.47.33-.74.33-.24,0-.48-.09-.67-.26l-2.66-2.4c-.41-.37-.45-1-.08-1.41.37-.42,1.01-.45,1.42-.08l2.66,2.4c.41.37.44,1.01.07,1.42ZM35.05,30.33c-.25.36-.79.36-1.03,0-1.9-2.86-8.44-12.96-8.44-17.1,0-4.85,4.01-8.78,8.95-8.78s8.95,3.93,8.95,8.78c0,4.14-6.53,14.24-8.43,17.1ZM46.79,21.55c-.27,0-.55-.11-.74-.33-.37-.41-.34-1.05.07-1.42l2.66-2.4c.41-.37,1.05-.34,1.42.08.37.41.33,1.04-.08,1.41l-2.66,2.4c-.19.17-.43.26-.67.26Z"/>
  </g>
</svg>