<?xml version="1.0" ?><svg height="100%" id="svg21" style="fill-rule:evenodd;clip-rule:evenodd;stroke-linejoin:round;stroke-miterlimit:2;" version="1.1" viewBox="0 0 64 64" width="100%" xml:space="preserve" xmlns="http://www.w3.org/2000/svg" xmlns:cc="http://creativecommons.org/ns#" xmlns:dc="http://purl.org/dc/elements/1.1/" xmlns:inkscape="http://www.inkscape.org/namespaces/inkscape" xmlns:rdf="http://www.w3.org/1999/02/22-rdf-syntax-ns#" xmlns:sodipodi="http://sodipodi.sourceforge.net/DTD/sodipodi-0.dtd" xmlns:svg="http://www.w3.org/2000/svg"><defs id="defs25"/><path d="m 49.99986,21.000576 c 0,-3.863546 -3.135944,-6.999489 -6.999489,-6.999489 H 21.000035 c -3.863545,0 -6.999489,3.135943 -6.999489,6.999489 v 22.000336 c 0,3.863545 3.135944,6.999489 6.999489,6.999489 h 22.000336 c 3.863545,0 6.999489,-3.135944 6.999489,-6.999489 z m -1.999207,0 v 22.000336 c 0,2.759675 -2.240607,5.000282 -5.000282,5.000282 0,0 -22.000336,0 -22.000336,0 -2.759675,0 -5.000282,-2.240607 -5.000282,-5.000282 0,0 0,-22.000336 0,-22.000336 0,-2.759675 2.240607,-5.000282 5.000282,-5.000282 0,0 22.000336,0 22.000336,0 2.759675,0 5.000282,2.240607 5.000282,5.000282 z" id="path4" style="stroke-width:1.13334;fill:#000000"/><path d="m 58.000285,19.000698 c 0,-7.175022 -5.825019,-13.0000407 -13.000041,-13.0000407 H 19.000162 c -7.175022,0 -13.0000406,5.8250187 -13.0000406,13.0000407 V 45.00078 c 0,7.175022 5.8250186,13.000041 13.0000406,13.000041 0,0 26.000082,0 26.000082,0 7.175022,0 13.000041,-5.825019 13.000041,-13.000041 0,0 0,-26.000082 0,-26.000082 z m -2.000007,0 V 45.00078 c 0,6.071685 -4.928348,11.000034 -11.000034,11.000034 H 19.000162 c -6.071686,0 -11.0000344,-4.928349 -11.0000344,-11.000034 0,0 0,-26.000082 0,-26.000082 0,-6.071686 4.9283484,-11.0000345 11.0000344,-11.0000345 0,0 26.000082,0 26.000082,0 6.071686,0 11.000034,4.9283485 11.000034,11.0000345 z" id="path8" style="stroke-width:1.66667;fill:#000000"/><path d="m 32.0002,23.000172 c -4.967216,0 -9.000028,4.032812 -9.000028,9.000028 0,4.967216 4.032812,9.000028 9.000028,9.000028 4.967216,0 9.000028,-4.032812 9.000028,-9.000028 0,-4.967216 -4.032812,-9.000028 -9.000028,-9.000028 z m 0,2.000006 c 3.863479,0 7.000022,3.136543 7.000022,7.000022 0,3.863479 -3.136543,7.000022 -7.000022,7.000022 -3.863479,0 -7.000022,-3.136543 -7.000022,-7.000022 0,-3.863479 3.136543,-7.000022 7.000022,-7.000022 z" id="path12" style="stroke-width:0.266667;fill:#000000"/><path d="m 42.000232,19.000159 c -1.655739,0 -3.000009,1.344271 -3.000009,3.000009 0,1.655738 1.34427,3.000009 3.000009,3.000009 1.655738,0 3.000009,-1.344271 3.000009,-3.000009 0,-1.655738 -1.344271,-3.000009 -3.000009,-3.000009 z m 0,2.000006 c 0.551935,0 1.000003,0.448068 1.000003,1.000003 0,0.551935 -0.448068,1.000003 -1.000003,1.000003 -0.551935,0 -1.000003,-0.448068 -1.000003,-1.000003 0,-0.551935 0.448068,-1.000003 1.000003,-1.000003 z" id="path16" style="stroke-width:0.0666669;fill:#000000"/></svg>